<svg width="93" height="86" viewBox="0 0 93 86" fill="none" xmlns="http://www.w3.org/2000/svg">
  <path d="M49.0845 76.8512C67.9792 76.8512 83.2963 61.6953 83.2963 42.9996C83.2963 24.3038 67.9792 9.14795 49.0845 9.14795C30.1899 9.14795 14.8728 24.3038 14.8728 42.9996C14.8728 61.6953 30.1899 76.8512 49.0845 76.8512Z" fill="#4466FB"/>
  <path d="M67.846 14.6877C67.0193 14.7355 66.9236 15.2387 67.1693 16.9451C66.0466 16.6806 64.9493 17.6999 63.805 17.0391C63.7395 17.0042 63.6054 17.033 63.5396 17.031C62.4349 17.2276 62.4027 17.1937 62.6407 15.9823C62.6812 15.7536 62.7883 15.5262 62.7945 15.3286C62.8028 15.066 62.8121 14.7696 62.7539 14.5041L62.6207 14.5C62.4285 15.3173 61.7742 16.0215 62.0426 17.0178C62.0395 17.1166 61.8305 17.406 61.7307 17.4029C60.9307 17.4442 60.2878 17.7869 59.9613 18.6331C59.8927 18.6969 59.7887 18.8255 59.7221 18.8235C59.1208 18.9038 58.6778 19.219 58.524 19.8735C58.4874 20.0034 58.2191 20.061 58.0828 20.1557C57.8468 20.2473 57.6752 20.4068 57.4732 20.4995C57.2704 20.5921 57.0344 20.6829 56.8316 20.7756C56.5953 20.9001 56.4258 20.9938 56.1887 21.1183C56.3166 21.2871 56.4425 21.5217 56.6047 21.6577C56.9628 21.8995 57.3569 22.0764 57.6482 22.3483C58.002 22.7218 58.0323 23.8748 57.6578 24.1599C57.4196 24.3174 56.9922 24.1394 56.6955 24.0643C56.1318 23.9818 55.6396 23.7689 55.108 23.7525C54.4757 23.733 54.125 24.3147 54.3729 24.8818C54.5258 25.3151 54.5477 25.6775 54.3013 26.0984C53.9839 26.6811 54.1143 27.805 54.5105 27.9161C55.0368 28.1293 55.5643 28.2774 56.0939 28.3597C56.5567 28.4728 56.9937 28.3215 57.1767 27.8005C57.6801 26.5973 58.5039 25.7995 59.5566 25.1405C59.6585 25.0777 59.7947 24.9831 59.8623 24.9522C59.6386 24.6494 59.5138 24.3819 59.3536 24.1792C59.6885 24.1236 59.9537 24.1647 60.215 24.3046C60.708 24.5176 61.17 24.6307 61.4912 23.9492C61.6025 23.5901 61.9012 23.5993 62.1248 23.9028C62.2195 24.0697 62.3807 24.2395 62.4067 24.4711C62.6128 25.3336 63.2349 25.6494 63.8208 26.0622C64.0818 26.2351 64.4065 26.4758 64.4971 26.7744C64.5897 27.008 64.5429 27.4343 64.4358 27.6617C64.3308 27.8233 63.9988 27.8131 63.7295 27.9036L63.3301 27.8913C63.3291 27.9243 63.2945 27.9891 63.2935 28.022C63.4872 28.1928 63.7108 28.4955 63.9458 28.4369C64.5462 28.3894 64.9745 27.4813 64.9736 26.4273C65.2044 26.5004 65.4031 26.5395 65.633 26.6446C65.6672 26.6135 65.7036 26.5158 65.738 26.4839C65.3167 26.1083 64.8609 25.7976 64.474 25.3909C63.9235 24.9133 63.3014 24.5975 63.2961 23.7082C63.2378 23.4427 63.0173 23.0411 63.453 22.9557C63.8203 22.9011 64.2852 22.9484 64.2676 23.5074C64.27 24.4626 64.8608 24.7445 65.483 25.0595C65.7461 25.1665 66.0084 25.2735 66.1686 25.4762C66.3298 25.6459 66.4536 25.9464 66.4152 26.1092C66.1979 26.6621 66.3186 27.0613 66.6048 27.4657C66.7328 27.6336 66.8264 27.8343 66.8878 28.001C67.0136 28.2356 67.0719 28.5003 67.1313 28.7328C67.3371 28.5414 67.5402 28.4158 67.746 28.2252C67.8147 28.1614 67.8833 28.0976 67.9187 28.0327C68.2275 27.7456 68.2672 27.5169 67.9102 27.2422C67.6825 27.0704 67.5584 26.8037 67.365 26.5999C67.9111 26.1553 68.3752 26.2026 68.8703 26.3497C69.2343 26.4268 69.6671 26.4072 69.9396 26.2178C70.0407 26.155 69.8937 25.558 69.9051 25.1958C69.8822 24.8662 69.7948 24.468 69.9362 24.2095C70.0838 23.7526 70.3617 23.3664 70.605 23.0443C70.8473 22.7551 71.1907 22.4039 71.3227 22.441C71.6847 22.584 71.9387 22.9536 72.1613 23.29C72.3568 23.4279 72.4453 23.7924 72.645 23.7986C72.8761 23.8387 73.1818 23.6503 73.4503 23.5605C73.4534 23.4617 73.422 23.4278 73.4241 23.3619C73.0954 23.22 72.799 23.1119 72.4712 22.97L72.4774 22.7732C73.2825 22.5673 74.0888 22.3285 74.8949 22.0904C74.7494 22.4807 74.5425 22.705 74.3343 22.9945C73.9173 23.5411 73.9101 23.7717 74.395 24.2151C74.6872 24.454 75.0471 24.6629 75.2689 24.9993C75.4281 25.2342 75.4811 25.6643 75.4052 25.9586C75.3657 26.1552 74.9602 26.3397 74.728 26.3325C74.3297 26.2872 73.902 26.1422 73.5754 25.9352C72.8253 25.4506 72.093 25.461 71.3814 25.8676C70.7749 26.1117 70.2341 26.3588 69.6599 26.6377C69.5236 26.7324 69.2865 26.8569 69.2824 26.9878C69.4634 27.5859 69.5769 28.2157 69.8588 28.7839C69.9202 28.9506 70.481 29.0998 70.5839 29.004C70.9627 28.5872 71.1561 28.791 71.4473 29.0636C71.7992 29.5022 72.1309 29.5453 72.5086 29.1623C72.6126 29.0336 72.7135 29.0038 72.7478 28.9718C72.935 29.3732 73.0568 29.7387 73.2814 30.0093C73.601 30.4139 73.5937 30.6444 73.1838 30.9935C72.9113 31.1829 72.6327 31.5699 72.6233 31.8654C72.638 32.4592 72.4372 32.4859 72.073 32.4417C71.5769 32.3276 71.0151 32.2113 70.5479 32.2629C69.2446 32.4205 68.1243 32.0563 67.0161 31.3308C66.7883 31.1589 66.3929 31.0479 66.2546 31.2084C66.0508 31.334 66.0373 31.7613 66.0613 32.0587C66.1404 32.7195 65.9678 32.912 65.4111 32.6311C64.6922 32.2142 63.9746 31.7306 63.2899 31.2818C62.6054 30.8322 62.2244 30.2609 62.4864 29.3469C62.6041 28.758 62.2814 28.4514 61.7136 28.4998C61.3806 28.5225 61.0114 28.61 60.7158 28.502C59.5944 28.1708 58.5927 28.2718 57.5411 28.8986C56.9637 29.2755 56.3239 29.5195 55.605 29.1018C55.5395 29.0668 55.2337 29.2552 55.0955 29.4157C54.751 29.7998 54.4069 30.1518 54.0928 30.6028C53.8826 30.9589 53.6018 31.4109 53.6237 31.7741C53.6654 32.5657 53.4814 33.1196 52.8707 33.4963C51.9544 34.0605 51.4259 34.9993 50.9955 35.9741C50.8552 36.1997 50.7803 36.4611 50.641 36.6545C50.2269 37.1354 50.2082 37.7281 50.455 38.3282C50.6974 39.093 50.6736 39.8496 50.4156 40.6649C50.2679 41.121 50.1484 41.7428 50.37 42.1122C50.8425 42.95 51.2484 43.7857 51.4503 44.78C51.4794 44.9127 51.5418 45.0465 51.6386 45.1475C52.1859 45.7248 52.6989 46.3331 53.2814 46.8784C53.733 47.32 54.2572 47.5999 54.8357 47.1892C55.4473 46.7804 56.1475 46.736 56.8497 46.6258C57.1492 46.6351 57.4175 46.5774 57.6567 46.387C58.2694 45.9452 58.8292 46.1265 59.3474 46.571C59.6708 46.8776 59.9174 47.5107 60.527 47.1677C60.5613 47.135 60.6924 47.2049 60.7558 47.3058C61.275 47.7173 61.4447 48.6768 61.1255 49.2933C60.7343 50.1044 60.6824 50.6953 61.1653 51.2038C61.6793 51.78 62.06 52.3843 62.1017 53.1758C62.1267 53.4403 62.2505 53.7407 62.3764 53.9746C62.9654 55.3433 63.0228 56.6949 62.2511 57.955C61.6875 58.9257 61.6242 59.8788 62.1235 60.9482C62.5565 61.9825 62.8552 63.0778 62.9198 64.1997C62.9584 65.0901 63.1636 65.9526 63.5058 66.7205C63.9451 67.5572 64.2176 68.4218 64.0867 69.405C63.9974 70.1274 64.1908 70.3311 64.8255 70.251C65.692 70.2118 66.5284 70.0736 67.3647 69.9346C67.4989 69.9057 67.6694 69.7792 67.8056 69.6845C69.1028 68.6383 70.1398 67.4186 70.2321 65.5442C70.2819 65.0192 70.5211 64.8288 70.9238 64.7102C71.1276 64.5846 71.3678 64.3613 71.4398 64.1657C71.6228 63.6448 71.5717 63.1496 71.2896 62.6135C71.197 62.3799 71.1793 61.8858 71.2853 61.6913C71.6672 61.1765 72.1153 60.6967 72.6262 60.3169C73.7162 59.5272 74.3412 57.6364 73.9841 56.3085C73.7095 55.5097 73.6355 54.6842 73.4628 53.8227C73.14 52.4621 73.8317 51.6281 74.7543 50.8654C75.4367 50.327 76.1534 49.7565 76.6099 49.0133C77.4461 47.8203 78.1544 46.4594 78.8606 45.1635C79.0374 44.8401 79.0508 44.412 79.1621 44.0537C78.796 44.0424 78.4307 44.0312 78.1281 44.1207C77.4602 44.199 76.8204 44.4422 76.185 44.5215C76.0184 44.5493 75.7916 44.3454 75.6647 44.1437C75.3183 43.5075 74.9738 42.8377 74.5951 42.1676C74.5348 41.9679 74.4077 41.7992 74.2807 41.5984C74.0644 41.0643 73.8157 40.4971 73.6344 39.932C73.3025 38.8348 73.0029 37.7716 72.6718 36.6745C72.5199 36.2091 72.4346 35.7458 72.2835 35.2797C72.0973 34.8463 71.9111 34.4121 71.6916 33.9776C71.9266 33.9189 72.0577 33.9889 72.1211 34.0897C72.7236 35.0296 73.2918 36.0022 73.8941 36.9759C73.99 37.0777 73.9505 37.2743 73.9775 37.4728C74.1014 37.7725 74.1253 38.0699 74.2158 38.3686C74.8714 39.7394 75.6632 41.0147 75.7113 42.6627C75.6978 43.0907 75.9578 43.2965 76.4302 43.0803C76.8025 42.8941 77.2374 42.8086 77.6097 42.6231C78.2162 42.3781 78.7915 42.0662 79.3697 41.6893C79.9128 41.3435 80.46 40.8667 81.0371 40.5219C81.8516 40.0205 82.3405 39.2782 82.6035 38.3313C82.6784 38.0699 82.4589 37.6354 82.3351 37.3349C82.2101 37.1003 81.9147 36.9594 81.7212 36.7565C81.3351 36.349 80.9721 36.239 80.4925 36.6856C80.0818 37.0348 79.5792 37.1511 79.1652 36.5458C79.1351 36.446 78.9687 36.4409 78.905 36.373C78.8095 36.206 78.6179 35.9694 78.6553 35.8387C78.8736 35.253 78.6874 34.8187 78.3338 34.4131C78.1726 34.2433 77.9799 34.0396 77.8873 33.806C77.827 33.6064 77.8373 33.2779 77.9091 33.1153C78.0141 32.9537 78.3128 32.9629 78.5437 33.036C79.0722 33.1512 79.2553 33.6842 79.4405 34.1505C79.8704 35.2837 80.1325 35.4236 81.2049 35.193C81.3734 35.1322 81.6378 35.1733 81.7335 35.3073C81.9891 35.7077 82.2811 35.9955 82.6031 36.187C80.7517 27.221 75.318 19.5454 67.846 14.6877Z" fill="#6BB5FB"/>
  <path d="M16.982 46.0612C17.8004 46.0795 18.1287 46.287 18.4283 46.9907C18.4915 47.1217 18.6902 47.2308 18.8622 47.3436C18.9672 47.4204 19.1624 47.4111 19.2474 47.5143C19.6226 47.9446 20.1697 47.7805 20.6044 47.9157C20.7409 47.7062 20.8248 47.5059 20.9097 47.3058C21.675 47.826 22.1343 48.6882 21.9964 49.319C21.8565 49.9489 21.7197 50.5599 21.645 51.1624C21.6333 51.3765 21.8083 51.624 21.8961 51.8656C21.9281 51.9535 22.0452 52.1178 21.9895 52.2006C21.8394 52.7265 21.9651 53.129 22.5469 53.3595C23.5781 53.7777 24.1703 54.5163 24.749 55.3047C25.2166 55.9056 25.7122 56.4038 26.5867 56.4472C27.5244 56.4993 27.9532 56.7883 28.2895 57.5272C28.523 58.0567 28.701 58.578 28.9354 59.1332C29.2538 59.9028 29.5127 60.6937 29.9569 61.4089C30.2797 61.9655 30.4719 62.4896 30.6578 63.0911C30.9052 63.9416 31.2907 64.8297 31.7371 65.6765C31.8074 65.8268 32.0849 65.9598 32.2586 66.0765C32.3537 66.1694 32.3979 66.2792 32.4537 66.3597C32.5881 66.6888 32.7606 66.9802 32.9407 67.3196C33.1231 67.7088 33.4733 68.1419 32.7449 68.3188C33.3239 68.3717 33.6021 68.576 33.7473 68.9811C33.7376 69.0105 33.7826 69.0702 33.8382 69.1013C34.4745 69.433 34.4998 69.7541 34.0844 70.0077C34.5867 70.3631 35.1115 70.6571 35.6223 71.0057C36.0515 71.3335 36.505 71.4453 37.05 71.3905C37.5203 71.3643 37.9705 71.3939 37.9057 70.8819C37.9072 70.8046 38.1056 70.7284 38.189 70.6708C38.3061 70.5747 38.4145 70.5076 38.5323 70.4121C38.2449 70.4209 38.086 70.5065 37.8644 70.5154C37.6838 70.5335 37.3959 70.541 37.3073 70.4725C36.8252 70.1202 36.3872 69.7754 35.9487 69.3793C35.9181 69.3399 35.9011 69.1941 35.9559 69.0983C36.0332 68.7416 36.1147 68.386 36.2533 68.0619C36.3772 67.7174 36.1196 67.5863 35.7501 67.5182C35.4064 67.4405 35.0476 67.3423 34.6105 67.2204C34.7329 67.128 34.7659 67.042 34.842 67.0156C35.4304 66.5132 35.4559 66.1602 34.9715 65.4183C34.8887 65.2991 34.917 65.0207 35.0566 64.9498C35.4828 64.6121 35.2558 64.3251 34.9418 63.9932C34.8502 63.9022 34.7844 63.8028 34.6674 63.6718C35.3478 63.5725 36.0103 63.5443 35.9833 62.8376C35.9961 62.2849 35.9023 61.8452 35.0552 61.5664C35.5941 61.4455 36.0415 61.3756 36.5159 61.2486C36.1561 60.9166 36.1048 60.6283 36.4431 60.4305C36.562 60.3236 36.5945 60.1746 36.6388 60.0443C36.9383 59.3722 36.7153 58.7299 36.3438 58.062C36.1215 57.7162 36.2373 57.4318 36.5272 57.1901C36.8836 56.9061 37.2669 56.6155 37.5801 56.3025C37.7674 56.0921 37.8372 55.8272 37.8374 55.5381C37.9147 55.2273 37.8262 54.8759 37.9195 54.5855C38.0458 54.2422 38.1906 53.875 37.8842 53.5414C37.2094 52.8029 37.2714 52.0863 37.7725 51.358C37.8538 51.2089 37.9536 51.0335 37.9934 50.8521C38.1872 50.4185 38.0843 49.9557 37.6521 49.7398C36.7617 49.25 35.8184 48.9517 34.7733 49.0773C34.2016 49.1622 33.6715 49.1286 33.1365 48.9189C32.7038 48.7524 32.1972 48.5322 31.6977 48.9009C31.7722 48.14 31.417 47.5839 30.8467 47.1287C30.6737 47.0319 30.3685 46.8732 30.1877 46.93C29.0697 47.2576 28.0925 46.7604 27.0946 46.4282C27.0078 46.4217 26.9504 46.3206 26.9263 46.2358C26.636 45.7096 26.4474 45.6304 25.8992 45.9936C25.3795 46.353 24.8392 46.1337 24.3198 46.0859C24.054 46.0413 23.8093 45.9692 23.5974 45.9139C23.6614 46.1528 23.7002 46.3956 23.7671 46.6337C23.7734 46.6559 23.7517 46.6819 23.77 46.747C23.6569 46.7439 23.4953 46.7718 23.4831 46.7283C23.3835 46.3737 23.2872 46.0187 23.1942 45.6632C22.5668 46.2657 21.8596 46.6823 21.8301 47.565C21.0685 47.073 21.0636 47.0466 20.2885 47.5038C20.0299 47.6875 19.8298 47.5813 19.6064 47.3844C18.992 46.9014 18.9224 46.2091 18.7633 45.5574C18.6213 44.856 18.4958 44.7811 17.7963 45.0231C17.6886 45.0388 17.6128 45.0732 17.5587 45.0811C17.3639 45.086 17.1692 45.0906 16.9797 45.1178C16.9651 44.9314 16.9504 44.7456 16.9425 44.5821C16.9775 43.9895 17.0213 43.3977 17.0692 42.7842C16.2257 42.869 16.0367 43.0565 16.0011 43.6981C16.006 43.8619 15.9838 44.1485 15.8803 44.1862C15.5665 44.3134 15.2423 44.5284 14.9078 44.5384C14.9202 44.8115 14.9358 45.0838 14.9546 45.3552C15.3189 45.4022 15.6543 45.5583 16.011 45.7545C16.2985 45.9028 16.6403 46.0411 16.982 46.0612Z" fill="#6BB5FB"/>
  <g opacity="0.3">
    <path opacity="0.3" d="M68.1029 14.8633C73.5999 20.8695 76.977 28.8108 76.977 37.552C76.977 56.2478 61.66 71.4036 42.7653 71.4036C35.7257 71.4036 29.1861 69.295 23.7468 65.6882C30.0067 72.5281 39.0242 76.8511 49.0845 76.8511C67.9791 76.8511 83.2962 61.6951 83.2962 42.9995C83.2962 31.2692 77.2631 20.9374 68.1029 14.8633Z" fill="#384E85"/>
  </g>
  <path d="M15.1099 39.6171C15.7646 38.7519 15.8211 38.7539 16.9533 39.2166C17.1285 39.2914 17.3729 39.2655 17.5318 39.225C17.8214 39.1258 17.945 39.2278 17.9803 39.4773C18.0538 39.6066 18.0227 39.7715 18.1004 39.9245C18.2692 40.5046 18.6259 40.8079 19.2128 40.8512C18.9946 40.3739 18.7897 39.9385 18.6104 39.4542C18.5298 39.2795 18.4747 39.0789 18.4776 38.8958C18.5228 38.2032 18.8413 37.6232 19.4212 37.1591C19.9474 36.7007 20.0378 36.2429 19.7687 35.6342C19.7002 35.4595 19.6359 35.3295 19.5405 35.1562C19.6945 35.0311 19.8527 34.95 19.9806 34.827C20.4912 34.3364 21.0902 33.8878 21.5005 33.3685C21.884 32.8744 22.3078 32.5571 22.9237 32.2957C22.9838 32.4893 23.0438 32.6389 23.1321 32.7863C23.2945 32.7752 23.5128 32.8024 23.6187 32.729C24.1506 32.4495 24.6287 32.1762 25.1351 31.8813C25.4014 31.7115 25.4487 31.4501 25.2001 31.2076C25.1196 31.2558 25.0391 31.2824 24.9593 31.353C24.2932 31.8296 23.9916 31.7876 23.654 31.109C23.6258 30.9797 23.5424 30.8316 23.5693 30.7205C23.6999 30.1236 23.2988 29.9056 22.7041 29.8686C22.6765 29.87 22.6772 29.8259 22.6242 29.7183C23.1377 29.6931 23.5975 29.6491 24.0842 29.6463C24.544 29.6233 25.0299 29.6631 25.5441 29.6568C25.5363 29.48 25.5603 29.3318 25.619 29.2095C26.1374 29.1452 26.7222 29.0111 27.0973 28.642C27.1679 28.5722 27.8043 27.2904 27.4059 27.3422C28.1849 27.2408 28.964 27.1395 29.7437 27.0381C30.0044 27.0039 30.2925 26.955 30.4543 26.7502C30.5701 26.6035 30.5948 26.4078 30.6132 26.2219C30.7135 25.182 30.7495 24.1022 31.0045 23.0986C31.2079 22.7765 31.405 22.4536 31.5836 22.1153C31.8238 21.7226 32.0096 21.5584 32.4807 21.6394C32.9249 21.7205 33.2696 21.5549 33.6566 21.2914C34.1066 20.9664 34.6003 20.7253 35.1406 20.5261C35.8554 20.248 36.6054 20.0921 37.3414 19.8587C37.5392 19.8007 37.797 19.7043 37.8111 19.626C37.8881 19.1941 38.2328 19.2179 38.6368 19.2018C38.6693 18.7335 38.7046 18.2849 38.7371 17.8746C38.8593 17.7991 38.9991 17.6454 39.1573 17.5322C39.5098 17.2666 39.9597 17.0458 39.9201 16.6369C39.8283 16.226 39.9046 15.9157 40.6773 15.8283C40.2605 15.5614 39.9385 15.3531 39.5959 15.1218C40.7747 14.5082 41.8504 13.9239 42.8993 13.3704C42.4289 13.0573 40.6088 13.0371 39.8608 13.3865C39.3975 13.5948 39.3438 13.5927 39.1107 13.3802C39.5973 13.0923 40.0487 12.8449 40.5381 12.5626C39.733 12.2131 38.9723 11.8972 38.2158 11.5744C38.1805 11.5716 38.1459 11.5688 38.1106 11.566C37.6112 11.5373 37.1232 11.4968 36.6337 11.4604C35.8746 11.754 34.9196 12.1803 33.9206 12.6469C23.6658 17.6724 16.3226 27.636 15.0649 39.3964C15.057 39.4718 15.0493 39.5458 15.0421 39.617H15.1099V39.6171Z" fill="#6BB5FB"/>
  <path d="M81.014 30.951C81.2788 31.6387 81.5073 32.3422 81.7275 33.0504C92.7166 37.6949 91.0184 44.5058 76.5734 48.5981C60.108 53.2626 33.2319 53.2626 16.6588 48.5982C0.0856765 43.9336 -0.00187664 35.8757 16.4634 31.2112C16.6751 31.1511 16.9075 31.1009 17.1225 31.0425C17.3419 30.4676 17.5865 29.9057 17.8361 29.3462C16.3656 29.6718 14.932 30.0165 13.58 30.3996C-4.4725 35.5138 -4.37649 43.8266 13.7941 48.9407C31.9518 54.0512 61.4043 54.0548 79.4568 48.9406C96.8711 44.0072 97.3331 36.0917 81.014 30.951Z" fill="#B7C5FD"/>
  <path d="M76.2848 63.4255C76.1622 63.5948 76.052 63.7745 75.9263 63.9411C78.0388 71.86 71.841 73.9382 60.039 68.0446C44.749 60.4092 25.0152 42.3556 16.0466 27.7982C7.07823 13.2404 12.6973 7.56796 27.9874 15.2034C28.2861 15.3527 28.5935 15.5228 28.899 15.6882C29.3436 15.3652 29.8012 15.0596 30.2617 14.7578C28.9632 14.0092 27.677 13.2948 26.4271 12.6706C9.66312 4.29928 4.03015 10.4675 13.8631 26.4282C23.6892 42.3778 45.3121 62.1646 62.076 70.5359C76.8908 77.9339 82.9853 73.9422 77.4072 61.893C77.0486 62.4163 76.6715 62.9235 76.2848 63.4255Z" fill="#B7C5FD"/>
  <path d="M50.2989 7.84782C49.9055 8.25747 49.52 8.71302 49.1313 9.15134C50.0889 9.15271 51.0321 9.20998 51.9677 9.29294C62.7556 -0.613325 71.6855 4.80619 71.3307 21.5962C70.9571 39.282 61.1909 63.5206 49.5593 75.6311C39.1631 86.4554 30.0839 83.388 28.6793 70.1127C27.9055 69.5424 27.1546 68.9447 26.4331 68.3133C26.4768 86.6577 36.3404 91.1339 48.8133 78.1472C61.5571 64.8788 72.2637 38.3189 72.6735 18.9284C73.0829 -0.448431 63.0425 -5.4206 50.2989 7.84782Z" fill="#B7C5FD"/>
  <path d="M76.9144 23.4074C77.3274 23.9823 77.7235 24.568 78.1004 25.1687C88.4536 25.5205 89.2736 31.8944 78.5287 40.659C65.8309 51.0167 42.1535 61.2157 25.7449 63.3955C10.7628 65.3858 6.71598 59.7155 15.8307 50.8817C15.6832 50.2752 15.5604 49.6601 15.4465 49.0412C2.07603 60.1735 5.48117 67.2744 23.2647 64.9119C41.2422 62.5237 67.1907 51.3503 81.1124 39.9942C94.1606 29.3507 92.0583 22.2746 76.9144 23.4074Z" fill="#B7C5FD"/>
  <path d="M33.434 64.913C34.5657 64.913 35.4832 64.0052 35.4832 62.8853C35.4832 61.7655 34.5657 60.8577 33.434 60.8577C32.3022 60.8577 31.3848 61.7655 31.3848 62.8853C31.3848 64.0052 32.3022 64.913 33.434 64.913Z" fill="#384E85"/>
  <path d="M8.55361 49.7573C10.207 49.7573 11.5473 48.4311 11.5473 46.7952C11.5473 45.1592 10.207 43.833 8.55361 43.833C6.90025 43.833 5.55994 45.1592 5.55994 46.7952C5.55994 48.4311 6.90025 49.7573 8.55361 49.7573Z" fill="#384E85"/>
  <path d="M23.7469 14.4996C24.8786 14.4996 25.7961 13.5918 25.7961 12.472C25.7961 11.3521 24.8786 10.4443 23.7469 10.4443C22.6151 10.4443 21.6976 11.3521 21.6976 12.472C21.6976 13.5918 22.6151 14.4996 23.7469 14.4996Z" fill="#384E85"/>
  <path d="M71.9403 24.0938C73.5937 24.0938 74.934 22.7676 74.934 21.1316C74.934 19.4956 73.5937 18.1694 71.9403 18.1694C70.287 18.1694 68.9467 19.4956 68.9467 21.1316C68.9467 22.7676 70.287 24.0938 71.9403 24.0938Z" fill="#384E85"/>
  <path d="M64.8954 53.2576C66.072 53.2576 67.0259 52.3138 67.0259 51.1496C67.0259 49.9853 66.072 49.0415 64.8954 49.0415C63.7187 49.0415 62.7649 49.9853 62.7649 51.1496C62.7649 52.3138 63.7187 53.2576 64.8954 53.2576Z" fill="#384E85"/>
  <path d="M89.1731 45.9624C90.8265 45.9624 92.1668 44.6362 92.1668 43.0003C92.1668 41.3643 90.8265 40.0381 89.1731 40.0381C87.5198 40.0381 86.1794 41.3643 86.1794 43.0003C86.1794 44.6362 87.5198 45.9624 89.1731 45.9624Z" fill="#384E85"/>
  <path d="M44.2367 84.1272C45.8901 84.1272 47.2304 82.801 47.2304 81.1651C47.2304 79.5291 45.8901 78.2029 44.2367 78.2029C42.5834 78.2029 41.243 79.5291 41.243 81.1651C41.243 82.801 42.5834 84.1272 44.2367 84.1272Z" fill="#384E85"/>
</svg>
