<svg width="75" height="85" viewBox="0 0 75 85" fill="none" xmlns="http://www.w3.org/2000/svg">
  <path d="M73.0163 67.3204L47.0782 82.2354C46.4652 82.5892 45.4776 82.5892 44.8646 82.241L0.916413 57.1313C0.303416 56.7832 0.303416 56.2159 0.916413 55.8621L26.8546 40.9472C27.4619 40.599 28.4495 40.599 29.0625 40.9472L73.0107 66.0512C73.6237 66.405 73.6294 66.9722 73.0163 67.3204Z" fill="#384E85"/>
  <path d="M34.7546 63.9089C35.104 64.1085 35.1019 64.4336 34.7548 64.6333L27.5471 68.7778C27.2 68.9774 26.6326 68.9796 26.2832 68.78L12.0798 60.666C11.7304 60.4664 11.7325 60.1412 12.0796 59.9416L19.2872 55.7971C19.6344 55.5975 20.2017 55.5952 20.5511 55.7948L34.7546 63.9089Z" fill="#2E4277"/>
  <path d="M73.4705 66.6915L73.4648 68.9829C73.4648 69.2076 73.3116 69.4378 73.0107 69.6119L47.0726 84.5269C46.4596 84.8751 45.472 84.8751 44.859 84.5269L0.910793 59.4228C0.604304 59.2487 0.45105 59.0185 0.45105 58.7826L0.456732 56.4968C0.456732 56.7271 0.609948 56.9574 0.916475 57.1315L44.8646 82.2411C45.4776 82.5893 46.4652 82.5893 47.0782 82.2355L73.0164 67.3205C73.3229 67.1464 73.4705 66.9218 73.4705 66.6915Z" fill="#1B2A4F"/>
  <path d="M34.0188 47.7245L33.1947 48.1984L31.2051 47.0618L32.0293 46.5879L34.0188 47.7245Z" fill="#798FFE"/>
  <path d="M23.171 50.8999L21.3482 51.948L16.6841 49.2835L18.5068 48.2354L23.171 50.8999Z" fill="#798FFE"/>
  <path d="M22.7911 48.0526L20.9683 49.1007L18.9788 47.9641L20.8015 46.916L22.7911 48.0526Z" fill="#798FFE"/>
  <path d="M25.4658 49.5804L23.643 50.6285L21.6534 49.4919L23.4762 48.4438L25.4658 49.5804Z" fill="#798FFE"/>
  <path d="M27.7604 48.2612L25.9377 49.3093L21.2736 46.6448L23.0963 45.5967L27.7604 48.2612Z" fill="#798FFE"/>
  <path d="M30.4315 49.787L28.6087 50.8351L26.6191 49.6985L28.4419 48.6504L30.4315 49.787Z" fill="#798FFE"/>
  <path d="M33.7175 49.038L31.8981 50.0841L29.9086 48.9475L31.7279 47.9014L33.7175 49.038Z" fill="#798FFE"/>
  <path d="M31.0465 47.5116L29.2271 48.5578L27.2375 47.4212L29.0569 46.375L31.0465 47.5116Z" fill="#798FFE"/>
  <path d="M31.3478 46.1981L30.5236 46.672L28.5341 45.5354L29.3582 45.0615L31.3478 46.1981Z" fill="#798FFE"/>
  <path d="M28.3719 45.9837L26.5526 47.0298L23.5682 45.325L25.3876 44.2788L28.3719 45.9837Z" fill="#798FFE"/>
  <path d="M28.6731 44.6703L27.8489 45.1442L25.8594 44.0076L26.6835 43.5337L28.6731 44.6703Z" fill="#798FFE"/>
  <path d="M44.7102 53.8317L43.886 54.3056L41.8965 53.169L42.7206 52.6951L44.7102 53.8317Z" fill="#798FFE"/>
  <path d="M44.409 55.1454L42.5897 56.1915L40.6001 55.055L42.4194 54.0088L44.409 55.1454Z" fill="#798FFE"/>
  <path d="M41.7376 53.6195L39.9183 54.6656L37.9287 53.5291L39.748 52.4829L41.7376 53.6195Z" fill="#798FFE"/>
  <path d="M33.4824 54.1603L31.6596 55.2084L29.67 54.0718L31.4928 53.0237L33.4824 54.1603Z" fill="#798FFE"/>
  <path d="M36.1571 55.6879L34.3343 56.736L32.3447 55.5994L34.1675 54.5513L36.1571 55.6879Z" fill="#798FFE"/>
  <path d="M36.6936 49.2518L35.8694 49.7257L33.8799 48.5891L34.7041 48.1152L36.6936 49.2518Z" fill="#798FFE"/>
  <path d="M39.3648 50.7777L38.5406 51.2516L36.551 50.115L37.3752 49.6411L39.3648 50.7777Z" fill="#798FFE"/>
  <path d="M36.3924 50.5653L34.5731 51.6115L32.5835 50.4749L34.4028 49.4287L36.3924 50.5653Z" fill="#798FFE"/>
  <path d="M33.1062 51.3146L31.2834 52.3627L29.2938 51.2261L31.1166 50.178L33.1062 51.3146Z" fill="#798FFE"/>
  <path d="M39.0633 52.0912L37.244 53.1373L35.2544 52.0008L37.0737 50.9546L39.0633 52.0912Z" fill="#798FFE"/>
  <path d="M30.8115 52.6344L28.9887 53.6825L26.9991 52.5459L28.8219 51.4978L30.8115 52.6344Z" fill="#798FFE"/>
  <path d="M35.7774 52.8404L33.9547 53.8886L31.9651 52.752L33.7878 51.7039L35.7774 52.8404Z" fill="#798FFE"/>
  <path d="M36.5336 58.5331L34.7143 59.5793L22.0333 52.335L23.8527 51.2888L36.5336 58.5331Z" fill="#798FFE"/>
  <path d="M42.0391 52.306L41.2149 52.7799L39.2253 51.6433L40.0495 51.1694L42.0391 52.306Z" fill="#798FFE"/>
  <path d="M47.3848 55.36L46.5607 55.8339L44.5676 54.6953L45.3918 54.2214L47.3848 55.36Z" fill="#798FFE"/>
  <path d="M52.7271 58.4115L51.9029 58.8854L49.9133 57.7488L50.7375 57.2749L52.7271 58.4115Z" fill="#798FFE"/>
  <path d="M38.4517 54.3688L36.629 55.4169L34.6394 54.2803L36.4622 53.2322L38.4517 54.3688Z" fill="#798FFE"/>
  <path d="M41.1229 55.8947L39.3001 56.9428L37.3105 55.8062L39.1333 54.7581L41.1229 55.8947Z" fill="#798FFE"/>
  <path d="M43.7975 57.4227L41.9747 58.4708L39.9817 57.3323L41.8045 56.2842L43.7975 57.4227Z" fill="#798FFE"/>
  <path d="M47.0801 56.6715L45.2608 57.7176L43.2747 56.583L45.094 55.5369L47.0801 56.6715Z" fill="#798FFE"/>
  <path d="M46.4683 58.9484L44.6456 59.9965L42.656 58.8599L44.4788 57.8118L46.4683 58.9484Z" fill="#798FFE"/>
  <path d="M44.5504 63.1134L42.7276 64.1615L40.738 63.0249L42.5608 61.9768L44.5504 63.1134Z" fill="#798FFE"/>
  <path d="M46.845 61.7941L45.0223 62.8422L43.0327 61.7056L44.8555 60.6575L46.845 61.7941Z" fill="#798FFE"/>
  <path d="M51.8143 62.0021L49.9915 63.0502L45.3274 60.3858L47.1501 59.3376L51.8143 62.0021Z" fill="#798FFE"/>
  <path d="M55.4016 59.9393L54.5775 60.4132L52.5879 59.2767L53.4121 58.8027L55.4016 59.9393Z" fill="#798FFE"/>
  <path d="M54.1054 60.6848L52.2861 61.731L48.6167 59.6348L50.436 58.5886L54.1054 60.6848Z" fill="#798FFE"/>
  <path d="M49.7547 58.1993L47.9354 59.2455L45.9458 58.1089L47.7651 57.0627L49.7547 58.1993Z" fill="#798FFE"/>
  <path d="M50.0559 56.8856L49.2318 57.3595L47.2422 56.2229L48.0664 55.749L50.0559 56.8856Z" fill="#798FFE"/>
  <path d="M59.4593 66.37L57.6366 67.4181L55.647 66.2815L57.4697 65.2334L59.4593 66.37Z" fill="#798FFE"/>
  <path d="M64.805 69.4235L62.9823 70.4716L60.9927 69.335L62.8154 68.2869L64.805 69.4235Z" fill="#798FFE"/>
  <path d="M52.1954 67.4808L50.3726 68.5289L48.3831 67.3924L50.2058 66.3442L52.1954 67.4808Z" fill="#798FFE"/>
  <path d="M60.3721 62.7792L59.5479 63.2531L57.5583 62.1165L58.3825 61.6426L60.3721 62.7792Z" fill="#798FFE"/>
  <path d="M59.076 63.5245L57.2567 64.5707L55.2671 63.4341L57.0864 62.3879L59.076 63.5245Z" fill="#798FFE"/>
  <path d="M63.0467 64.307L62.2225 64.7809L60.2329 63.6443L61.0571 63.1704L63.0467 64.307Z" fill="#798FFE"/>
  <path d="M56.7847 64.8419L54.962 65.89L52.9724 64.7534L54.7952 63.7053L56.7847 64.8419Z" fill="#798FFE"/>
  <path d="M61.7506 65.0521L59.9312 66.0983L57.9417 64.9617L59.761 63.9155L61.7506 65.0521Z" fill="#798FFE"/>
  <path d="M54.4901 66.1617L52.6673 67.2099L50.6777 66.0733L52.5005 65.0251L54.4901 66.1617Z" fill="#798FFE"/>
  <path d="M64.4217 66.5785L62.6024 67.6246L60.6128 66.4881L62.4321 65.4419L64.4217 66.5785Z" fill="#798FFE"/>
  <path d="M57.1646 67.6893L55.3419 68.7374L53.3523 67.6008L55.1751 66.5527L57.1646 67.6893Z" fill="#798FFE"/>
  <path d="M62.1304 67.8959L60.3077 68.944L58.3181 67.8074L60.1409 66.7593L62.1304 67.8959Z" fill="#798FFE"/>
  <path d="M59.8358 69.2152L58.013 70.2633L56.0234 69.1267L57.8462 68.0786L59.8358 69.2152Z" fill="#798FFE"/>
  <path d="M28.1368 51.1063L26.3141 52.1544L24.3245 51.0178L26.1472 49.9697L28.1368 51.1063Z" fill="#798FFE"/>
  <path d="M39.2081 60.0616L37.3854 61.1098L35.3923 59.9712L37.2151 58.9231L39.2081 60.0616Z" fill="#798FFE"/>
  <path d="M41.5028 58.7421L39.68 59.7902L37.687 58.6516L39.5098 57.6035L41.5028 58.7421Z" fill="#798FFE"/>
  <path d="M41.8792 61.5875L40.0565 62.6356L38.0669 61.499L39.8897 60.4509L41.8792 61.5875Z" fill="#798FFE"/>
  <path d="M44.1739 60.2682L42.3512 61.3163L40.3616 60.1797L42.1843 59.1316L44.1739 60.2682Z" fill="#798FFE"/>
  <path d="M38.8282 57.2142L37.0054 58.2623L35.0159 57.1258L36.8386 56.0776L38.8282 57.2142Z" fill="#798FFE"/>
  <path d="M47.2249 64.6415L45.4022 65.6896L43.4126 64.553L45.2354 63.5049L47.2249 64.6415Z" fill="#798FFE"/>
  <path d="M67.0963 68.1061L65.2769 69.1522L63.2874 68.0156L65.1067 66.9695L67.0963 68.1061Z" fill="#798FFE"/>
  <path d="M68.3924 67.3607L67.5682 67.8346L65.5786 66.698L66.4028 66.2241L68.3924 67.3607Z" fill="#798FFE"/>
  <path d="M65.7178 65.8331L64.8936 66.307L62.9041 65.1705L63.7282 64.6965L65.7178 65.8331Z" fill="#798FFE"/>
  <path d="M54.87 69.0087L53.0472 70.0568L51.0576 68.9202L52.8804 67.8721L54.87 69.0087Z" fill="#798FFE"/>
  <path d="M62.5103 70.7433L58.3929 73.1109L56.4033 71.9743L60.5208 69.6067L62.5103 70.7433Z" fill="#798FFE"/>
  <path d="M57.5408 70.5348L55.7181 71.5829L53.7285 70.4463L55.5513 69.3982L57.5408 70.5348Z" fill="#798FFE"/>
  <path d="M72.4631 32.5744C73.0755 32.9243 73.5704 33.7724 73.5684 34.4687L73.49 65.0627C73.488 65.7549 72.9899 66.0399 72.3775 65.69L29.0627 40.9478C28.4503 40.5979 27.9554 39.7457 27.9574 39.0535L28.0358 8.45945C28.0378 7.76312 28.5358 7.48229 29.1483 7.83215L72.4631 32.5744Z" fill="#1B2A4F"/>
  <path d="M74.7316 33.8016L74.6522 64.3945C74.6522 64.737 74.5273 64.9841 74.3286 65.0965L73.1669 65.7649C73.3656 65.6526 73.4904 65.4055 73.4904 65.0629L73.5699 34.4701C73.5699 33.7737 73.0761 32.9257 72.4631 32.5718L29.1481 7.83238C28.8416 7.65827 28.5635 7.64145 28.3591 7.75374L29.5208 7.08527C29.7195 6.97294 30.0033 6.98977 30.3098 7.16387L73.6248 31.909C74.2378 32.2572 74.7316 33.1052 74.7316 33.8016Z" fill="#384E85"/>
  <path d="M72.005 34.0953L71.9296 63.6511L29.5208 39.4263L29.5961 9.87061L72.005 34.0953Z" fill="#D9DDF6"/>
  <path d="M67.047 25.2735L66.9776 48.5809C66.9765 48.9635 66.8401 49.2325 66.6204 49.3588L68.1387 48.4857C68.3585 48.3594 68.4948 48.0904 68.4959 47.7078L68.5653 24.4004L67.047 25.2735Z" fill="#4466FB"/>
  <path d="M67.047 25.2737L66.9776 48.5812C66.9754 49.3506 66.4262 49.6603 65.7522 49.2752L34.1665 31.2312C33.4897 30.8446 32.9441 29.9094 32.9463 29.14L33.0157 5.83252L67.047 25.2737Z" fill="#6BB5FB"/>
  <path d="M34.3401 8.11182L34.2776 29.7719L65.6469 47.6929L65.7129 26.0337L34.3401 8.11182Z" fill="white"/>
  <path d="M68.5799 20.6841L68.5702 24.4022L67.0488 25.2693L67.0584 21.5607C67.0584 20.7889 66.5095 19.8552 65.8355 19.4741L34.2509 1.4279C33.9139 1.23733 33.6058 1.21826 33.3843 1.34212L34.8961 0.46555C35.1273 0.341676 35.4353 0.360702 35.7724 0.551278L67.3569 18.5974C68.031 18.9881 68.5799 19.9219 68.5799 20.6841Z" fill="#384E85"/>
  <path d="M65.8391 19.4723C66.513 19.8574 67.0587 20.7925 67.0565 21.5588L67.0464 25.2736L33.0151 5.83239L33.0252 2.11762C33.0274 1.35133 33.5766 1.04164 34.2533 1.42824L65.8391 19.4723Z" fill="#2E4277"/>
  <path d="M64.7363 20.0568C64.2725 19.7918 63.8948 20.0048 63.8933 20.5322C63.8918 21.0596 64.267 21.6998 64.7309 21.9648C65.1923 22.2284 65.5699 22.0182 65.5714 21.4908C65.573 20.9634 65.1978 20.3204 64.7363 20.0568Z" fill="#B7C5FD"/>
  <path d="M59.3499 16.9806C58.886 16.7157 58.5084 16.9286 58.5068 17.456C58.5053 17.9834 58.8805 18.6237 59.3444 18.8887C59.8058 19.1523 60.1835 18.9421 60.185 18.4147C60.1865 17.8873 59.8113 17.2442 59.3499 16.9806Z" fill="#B7C5FD"/>
  <path d="M62.0432 18.5182C61.5794 18.2533 61.2017 18.4662 61.2002 18.9936C61.1987 19.521 61.5739 20.1613 62.0377 20.4263C62.5016 20.6912 62.8768 20.4797 62.8783 19.9523C62.8798 19.4249 62.5071 18.7832 62.0432 18.5182Z" fill="#B7C5FD"/>
  <path d="M40.0549 19.73L41.3365 21.9263C39.8145 22.3971 38.6866 23.645 38.1908 25.5468L37.9287 25.397C37.9955 22.8559 38.7835 20.9353 40.0549 19.73Z" fill="#D9DDF6"/>
  <path d="M48.3863 19.6241L48.3735 24.0602C47.825 23.6229 47.2615 23.2334 46.6829 22.9029C44.6704 21.7531 42.8138 21.4697 41.3364 21.9266L40.0549 19.7303C41.9621 17.9196 44.9741 17.7424 48.3863 19.6241Z" fill="#B7C5FD"/>
  <path d="M56.7603 28.834C58.1985 31.666 59.0813 34.7046 59.1377 37.5131L55.1322 35.2249C54.8295 33.6948 54.2842 32.133 53.5554 30.6467L56.7603 28.834Z" fill="#9AADFD"/>
  <path d="M48.5742 19.7201C51.8824 21.61 54.8246 25.0254 56.7602 28.8343L53.5554 30.647C52.2898 28.0825 50.4689 25.7245 48.3735 24.06L48.3862 19.624C48.4456 19.6579 48.5099 19.6834 48.5742 19.7201Z" fill="#AABAFD"/>
  <path d="M55.222 26.478L47.6527 31.4754C47.8608 32.1936 47.7482 32.8373 47.3196 33.0789C47.0331 33.2405 46.6587 33.1895 46.2841 32.9755C45.9083 32.7608 45.5323 32.3821 45.2448 31.8893C44.6746 30.912 44.6776 29.854 45.2515 29.5303C45.5378 29.3689 45.9138 29.4205 46.2882 29.6344C46.4694 29.7379 46.65 29.8792 46.8202 30.0529L55.222 26.478Z" fill="#535D88"/>
</svg>
