<svg width="29" height="38" viewBox="0 0 29 38" fill="none" xmlns="http://www.w3.org/2000/svg">
  <path d="M25.5392 19.3517C25.5257 19.3655 24.3302 21.1778 24.8329 24.9124C25.8789 32.7795 22.8087 39.4384 13.5706 36.5277L13.2039 36.4179L12.8371 36.102C3.61273 28.2349 0.596761 18.02 1.68357 11.4022C2.19982 8.24442 1.01792 5.07285 1.01792 5.04535L0.270752 3.1095L5.29731 1.87378L6.12599 2.72502C6.73735 3.35661 7.37582 3.8646 8.01436 4.24901C10.3646 5.60832 12.2257 4.92184 12.2393 4.92184L13.299 4.52361L14.345 6.15746C14.3586 6.1712 16.2198 9.02701 18.5565 10.3863C19.195 10.7706 19.8335 11.0041 20.4584 11.0865L21.2735 11.1963L26.2865 18.2946L25.5392 19.3517Z" fill="#B7C5FD"/>
  <path d="M28.4503 17.0172L23.4419 9.91841L22.6187 9.80956C22.011 9.73179 21.3648 9.4908 20.7185 9.11754C18.3874 7.74918 16.5333 4.90342 16.5179 4.88791L15.4639 3.24729L14.4099 3.65162L14.3868 3.65941C14.156 3.7293 12.3789 4.25029 10.1863 2.9674C9.54003 2.59424 8.90158 2.08104 8.28599 1.45121L7.46287 0.595947L2.43913 1.83995L0.286011 3.1055L5.29647 1.87373L6.12515 2.72497C6.73651 3.35657 7.37498 3.86455 8.01352 4.24896C10.3637 5.60828 12.2249 4.92179 12.2385 4.92179L13.2982 4.52357L14.3442 6.15742C14.3578 6.17115 16.219 9.02697 18.5557 10.3862C19.1941 10.7706 19.8327 11.0041 20.4575 11.0864L21.2727 11.1962L26.2857 18.2946L25.5384 19.3517C25.5249 19.3654 24.3294 21.1778 24.832 24.9123C25.4845 29.8199 24.5341 34.256 21.4851 36.1935L23.4728 35.0323C26.6654 33.1508 27.6656 28.6412 26.9963 23.6339C26.5039 19.9019 27.6964 18.0902 27.7041 18.0746L28.4503 17.0172Z" fill="#D9DDF6"/>
  <path d="M13.2871 6.99065C13.4 7.16807 15.5444 10.539 18.5492 12.2923C19.3366 12.7517 20.1754 13.0879 21.0383 13.2047L24.1207 17.5743C24.0449 17.6807 22.6043 19.7006 23.2163 24.2857C24.0595 30.6284 21.8714 37.185 13.21 34.4623C4.56171 27.0849 2.41748 18.0005 3.29345 12.6609C3.92911 8.80374 2.50454 5.11204 2.42957 4.91772L5.52638 4.15356C6.38839 5.04343 7.22646 5.68553 8.01439 6.14529C11.02 7.89903 13.1737 7.03606 13.2871 6.99065Z" fill="#3955D1"/>
  <path d="M16.171 20.2328C16.8333 20.6193 17.3657 21.545 17.3636 22.3141L17.3474 28.0702C17.3453 28.8269 16.8095 29.1355 16.1472 28.7491L9.73784 25.0093C9.07553 24.6228 8.54317 23.6909 8.54529 22.9342L8.56144 17.1782C8.56361 16.409 9.09942 16.1066 9.76173 16.4931L16.171 20.2328ZM13.3538 23.2735C13.6962 23.293 13.9322 23.0394 13.9335 22.5804C13.9353 21.9477 13.4988 21.1898 12.9593 20.875C12.4199 20.5602 11.9805 20.8071 11.9787 21.4398C11.9774 21.8988 12.2113 22.4266 12.5527 22.806L12.5479 24.4869L13.3491 24.9544L13.3538 23.2735Z" fill="white"/>
  <path d="M13.0003 13.0199C13.0278 13.0359 13.0552 13.0523 13.0828 13.0692C14.7865 14.1192 16.1703 16.6538 16.1646 18.7069L16.1603 20.2265L15.1188 19.6188L15.123 18.0992C15.127 16.6974 14.1956 14.9735 13.042 14.2569C13.0221 14.2446 13.0022 14.2327 12.9823 14.2211C12.4216 13.8939 11.8841 13.8332 11.4805 14.0477C11.0572 14.2792 10.8257 14.784 10.8238 15.4601L10.8192 17.11L9.77234 16.4992L9.77696 14.8493C9.77978 13.8445 10.1243 13.1011 10.7565 12.7555C11.3634 12.43 12.1648 12.5324 13.0003 13.0199Z" fill="white"/>
</svg>
