<svg width="25" height="40" viewBox="0 0 25 40" fill="none" xmlns="http://www.w3.org/2000/svg">
  <path d="M2.39632 11.343L19.7785 1.30738C20.4266 0.933197 21.0145 0.898372 21.4394 1.14533L23.763 2.4957C23.3381 2.24877 22.7503 2.28355 22.1022 2.65775L4.72006 12.6933C3.43072 13.4377 2.38688 15.2457 2.39109 16.7333L2.44773 36.7007C2.4498 37.4404 2.7107 37.9604 3.13101 38.2047L0.807333 36.8543C0.386958 36.61 0.126107 36.09 0.123998 35.3503L0.0673956 15.3829C0.0631776 13.8954 1.10702 12.0873 2.39632 11.343Z" fill="#D9DDF6"/>
  <path d="M4.72007 12.6935C3.43075 13.4379 2.38691 15.2459 2.39113 16.7335L2.44773 36.7008C2.45195 38.1884 3.50261 38.7872 4.79193 38.0428L22.1741 28.0072C23.4634 27.2628 24.5072 25.4548 24.503 23.9672L24.4464 3.99989C24.4422 2.51232 23.3915 1.91357 22.1022 2.65798L4.72007 12.6935Z" fill="#B7C5FD"/>
  <path d="M22.3477 7.47228L22.4898 7.39024L22.5336 22.8465L22.3915 22.9286C21.1811 23.6274 20.2002 25.3263 20.2042 26.7171L20.2046 26.8865L6.75361 34.6524L6.75314 34.4831C6.74919 33.0922 5.76189 32.5296 4.55149 33.2285L4.40417 33.3135L4.36035 17.8573L4.50766 17.7722C5.71805 17.0734 6.69895 15.3744 6.69502 13.9836L6.69454 13.8143L20.1456 6.04834L20.146 6.21765C20.15 7.60843 21.1373 8.17108 22.3477 7.47228ZM22.2432 22.6871L22.2013 7.88992C20.9485 8.52839 19.9348 7.95072 19.8571 6.55405L6.97965 13.9888C6.91008 15.4705 5.90823 17.2119 4.65595 18.0197L4.69791 32.8168C5.95063 32.1723 6.95906 32.753 7.03681 34.1497L19.9142 26.7149C19.9838 25.2332 20.991 23.4888 22.2432 22.6871Z" fill="#9AADFD"/>
  <path d="M14.8455 22.4414L14.8485 23.2288L6.36531 28.1266L6.3623 27.3392L14.8455 22.4414Z" fill="#9AADFD"/>
  <path d="M20.5376 14.6731L20.5406 15.4605L6.35286 23.6518L6.34985 22.8644L20.5376 14.6731Z" fill="#9AADFD"/>
  <path d="M20.5437 16.9106L20.5467 17.698L6.35896 25.8893L6.35596 25.102L20.5437 16.9106Z" fill="#9AADFD"/>
  <path d="M20.2446 9.7981L20.2493 11.4489L6.61405 19.3212L6.60938 17.6704L20.2446 9.7981Z" fill="#384E85"/>
  <path d="M14.3652 37.7576L14.8843 39.1569L15.3737 39.4413L14.8546 38.042L14.3652 37.7576Z" fill="#384E85"/>
  <path d="M16.7855 33.8034L16.2961 33.519L17.7302 37.5137L18.2196 37.7981L16.7855 33.8034Z" fill="#384E85"/>
  <path d="M17.5564 30.0925L15.0163 31.559L12.9578 39.3407L13.4471 39.6251L15.5056 31.8435L18.0458 30.3769L17.5564 30.0925Z" fill="#384E85"/>
  <path d="M18.0457 30.377L20.132 35.7656L18.7245 35.8077L18.2196 37.7983L16.7855 33.8036L15.3736 39.4414L14.8545 38.0421L13.447 39.6251L15.5056 31.8435L18.0457 30.377Z" fill="#1B2A4F"/>
  <path d="M12.1914 31.8273C12.1914 32.9534 12.5889 33.7482 13.2332 34.1215L14.0822 34.6153C13.4379 34.2419 13.0405 33.4471 13.0405 32.3211C13.0344 30.045 14.6301 27.2752 16.6112 26.1311C17.6047 25.5591 18.5079 25.5049 19.1582 25.8843L18.3092 25.3905C17.6589 25.0112 16.7557 25.0653 15.7621 25.6374C13.7811 26.7814 12.1854 29.5513 12.1914 31.8273Z" fill="#6BB5FB"/>
  <path d="M19.1508 31.7195C20.5524 29.3077 20.5561 26.6945 19.1591 25.8827C17.7622 25.0708 15.4935 26.3678 14.0919 28.7796C12.6904 31.1914 12.6867 33.8046 14.0836 34.6164C15.4806 35.4282 17.7492 34.1312 19.1508 31.7195Z" fill="#4466FB"/>
  <path d="M16.7858 27.8418L17.4 28.9074L18.7635 28.3465L17.7199 30.125L18.3028 31.453L16.9073 31.282L15.5809 32.8529L15.8105 31.1596L14.8208 30.6229L16.183 29.6101L16.7858 27.8418Z" fill="white"/>
</svg>
